HIERARCHY
ROOT Hips
{
  OFFSET 53.9676 91.6698 6.95212
  CHANNELS 6 Xposition Yposition Zposition Zrotation Xrotation Yrotation
  JOINT spine
  {
    OFFSET 0 6.84637 0.3937
    CHANNELS 3 Zrotation Xrotation Yrotation
    JOINT spine1
    {
      OFFSET 0 9.49621 0
      CHANNELS 3 Zrotation Xrotation Yrotation
      JOINT spine2
      {
        OFFSET 0 9.09909 0
        CHANNELS 3 Zrotation Xrotation Yrotation
        JOINT Neck
        {
          OFFSET 0 23.3612 1.11378
          CHANNELS 3 Zrotation Xrotation Yrotation
          JOINT Head
          {
            OFFSET 0 7.05802 0
            CHANNELS 3 Zrotation Xrotation Yrotation
            End Site
            {
              OFFSET 0 17.0844 -5.63419
            }
          }
        }
        JOINT RightShoulder
        {
          OFFSET -3.83136 9.82631 -0.533491
          CHANNELS 3 Zrotation Xrotation Yrotation
          JOINT RightArm
          {
            OFFSET 0 12.8881 0
            CHANNELS 3 Zrotation Xrotation Yrotation
            JOINT RightArmRoll
            {
              OFFSET 0 6.50616 0
              CHANNELS 3 Zrotation Xrotation Yrotation
              JOINT RightForeArm
              {
                OFFSET 0 18.9501 0
                CHANNELS 3 Zrotation Xrotation Yrotation
                JOINT RightForeArmRoll
                {
                  OFFSET 0 7.30092 0
                  CHANNELS 3 Zrotation Xrotation Yrotation
                  JOINT RightHand
                  {
                    OFFSET 0 14.6514 0
                    CHANNELS 3 Zrotation Xrotation Yrotation
                    End Site
                    {
                      OFFSET 0 0 0
                    }
                  }
                }
              }
            }
          }
        }
        JOINT LeftShoulder
        {
          OFFSET 3.83136 9.82631 -0.533491
          CHANNELS 3 Zrotation Xrotation Yrotation
          JOINT LeftArm
          {
            OFFSET 0 12.8881 0
            CHANNELS 3 Zrotation Xrotation Yrotation
            JOINT LeftArmRoll
            {
              OFFSET 0 6.50617 0
              CHANNELS 3 Zrotation Xrotation Yrotation
              JOINT LeftForeArm
              {
                OFFSET 0 18.9501 0
                CHANNELS 3 Zrotation Xrotation Yrotation
                JOINT LeftForeArmRoll
                {
                  OFFSET 0 7.30092 0
                  CHANNELS 3 Zrotation Xrotation Yrotation
                  JOINT LeftHand
                  {
                    OFFSET 0 14.6514 0
                    CHANNELS 3 Zrotation Xrotation Yrotation
                    End Site
                    {
                      OFFSET 0 0 0
                    }
                  }
                }
              }
            }
          }
        }
      }
    }
  }
  JOINT RightUpLeg
  {
    OFFSET -6.06837 -1.11278 -0.933477
    CHANNELS 3 Zrotation Xrotation Yrotation
    JOINT RightUpLegRoll
    {
      OFFSET 0 17.1796 0
      CHANNELS 3 Zrotation Xrotation Yrotation
      JOINT RightLeg
      {
        OFFSET 0 -21.2743 0
        CHANNELS 3 Zrotation Xrotation Yrotation
        JOINT RightLegRoll
        {
          OFFSET 0 21.3439 0
          CHANNELS 3 Zrotation Xrotation Yrotation
          JOINT RightFoot
          {
            OFFSET 0 17.7652 0
            CHANNELS 3 Zrotation Xrotation Yrotation
            JOINT RightToeBase
            {
              OFFSET 0 14.8508 0
              CHANNELS 3 Zrotation Xrotation Yrotation
              End Site
              {
                OFFSET 0.0062947 7.19214 -0.829005
              }
            }
          }
        }
      }
    }
  }
  JOINT LeftUpLeg
  {
    OFFSET 6.06837 -1.11278 -0.933477
    CHANNELS 3 Zrotation Xrotation Yrotation
    JOINT LeftUpLegRoll
    {
      OFFSET 0 17.1797 0
      CHANNELS 3 Zrotation Xrotation Yrotation
      JOINT LeftLeg
      {
        OFFSET 0 21.2742 0
        CHANNELS 3 Zrotation Xrotation Yrotation
        JOINT LeftLegRoll
        {
          OFFSET 0 21.5412 0
          CHANNELS 3 Zrotation Xrotation Yrotation
          JOINT LeftFoot
          {
            OFFSET 0 17.5679 0
            CHANNELS 3 Zrotation Xrotation Yrotation
            JOINT LeftToeBase
            {
              OFFSET 0 14.8508 0
              CHANNELS 3 Zrotation Xrotation Yrotation
              End Site
              {
                OFFSET -0.0282102 7.19213 -0.829005
              }
            }
          }
        }
      }
    }
  }
}
MOTION
Frames: 6
Frame Time: 0.00208333
54.4069 91.6541 6.65326 0.909307 -6.21055 1.04209 0.103318 -1.66223 -0.157054 0.202158 0.678095 -0.318251 0.20583 2.32314 -0.321783 -5.66061 25.2345 2.08317 3.19613 -6.38749 0.275299 65.5685 5.24704 2.04083 93.6786 22.1917 -21.3286 -7.71787e-007 4.90639e-007 -1.54462e-006 16.7236 60.7791 -11.4042 -3.05973e-006 3.86761e-007 -3 8.0289 -4.95144 0.697674 -65.7162 0.121731 0.729854 -100.892 27.2275 13.5792 -7.557e-006 6.08267e-007 1.99957e-006 -24.2226 55.1543 14.7596 1.3074e-005 -3.85381e-006 3.00109 -8.02893 -4.95146 -0.697672 174.465 -3.40735 2.10726 -180 7.01514e-015 178.788 177.962 5.00075 179.945 2.79486e-006 -1.13655e-006 0.0398451 -18.4846 67.6409 19.2385 8.13649 25.2326 -3.48773 -176.27 -6.18853 0.568816 -1.07169e-005 -4.64205e-006 -1.24416 -0.992914 -5.31384 0.110121 5.25717e-007 -7.34055e-006 -0.0615924 18.927 68.1876 -19.6925 -8.13649 25.2326 3.48774 
54.4046 91.657 6.66215 0.90949 -6.20726 1.04667 0.103347 -1.66142 -0.157429 0.202638 0.679702 -0.31928 0.20632 2.32475 -0.322822 -5.65407 25.2224 2.07682 3.19484 -6.37004 0.271467 65.5482 5.21833 2.02893 93.5778 22.0864 -21.2222 -7.71787e-007 4.90639e-007 -1.54462e-006 16.6811 60.831 -11.3943 -3.05973e-006 3.86761e-007 -3 8.0289 -4.95144 0.697674 -65.6994 0.109918 0.734227 -100.764 27.1338 13.382 -7.557e-006 6.08267e-007 1.99957e-006 -24.1537 55.2366 14.7568 1.3074e-005 -3.85381e-006 3.00109 -8.02893 -4.95146 -0.697672 174.465 -3.40719 2.10796 -180 7.01514e-015 178.788 177.961 5.00064 179.945 2.79486e-006 -1.13655e-006 0.0398457 -18.4848 67.6412 19.2387 8.13649 25.2326 -3.48773 -176.273 -6.20491 0.572352 -1.07169e-005 -4.64205e-006 -1.24419 -0.990435 -5.27871 0.10948 5.25717e-007 -7.34055e-006 -0.0601971 18.9142 68.1726 -19.679 -8.13649 25.2326 3.48774 
54.403 91.6562 6.67342 0.90945 -6.20779 1.05042 0.103397 -1.65978 -0.157518 0.203299 0.682983 -0.319751 0.206989 2.32803 -0.323307 -5.64707 25.2071 2.07017 3.19259 -6.34904 0.267421 65.5258 5.1876 2.01631 93.4797 21.9824 -21.1192 -7.71787e-007 4.90639e-007 -1.54462e-006 16.6383 60.8869 -11.3852 -3.05973e-006 3.86761e-007 -3 8.0289 -4.95144 0.697674 -65.6816 0.09787 0.73862 -100.638 27.0435 13.177 -7.557e-006 6.08267e-007 1.99957e-006 -24.0806 55.3153 14.7509 1.3074e-005 -3.85381e-006 3.00109 -8.02893 -4.95146 -0.697672 174.465 -3.41129 2.1087 -180 7.01514e-015 178.788 177.961 5.00024 179.945 2.79486e-006 -1.13655e-006 0.0398463 -18.4851 67.6417 19.239 8.13649 25.2326 -3.48773 -176.274 -6.22098 0.574522 -1.07169e-005 -4.64205e-006 -1.24423 -0.988583 -5.25227 0.109008 5.25717e-007 -7.34055e-006 -0.0592026 18.9048 68.1615 -19.6691 -8.13649 25.2326 3.48774 
54.406 91.6568 6.66802 0.909248 -6.21206 1.05351 0.103449 -1.65733 -0.157339 0.204146 0.687975 -0.319708 0.207843 2.33302 -0.323282 -5.63981 25.1882 2.06309 3.18988 -6.32446 0.263056 65.5008 5.15408 2.00264 93.385 21.88 -21.0205 -7.71787e-007 4.90639e-007 -1.54462e-006 16.5956 60.9461 -11.3772 -3.05973e-006 3.86761e-007 -3 8.0289 -4.95144 0.697674 -65.6625 0.0853767 0.743111 -100.514 26.9559 12.9643 -7.557e-006 6.08267e-007 1.99957e-006 -24.0035 55.3914 14.7426 1.3074e-005 -3.85381e-006 3.00109 -8.02893 -4.95146 -0.697672 174.465 -3.4196 2.10956 -180 7.01514e-015 178.788 177.96 4.99951 179.945 2.79486e-006 -1.13655e-006 0.0398469 -18.4855 67.6423 19.2395 8.13649 25.2326 -3.48773 -176.274 -6.23838 0.57558 -1.07169e-005 -4.64205e-006 -1.24426 -0.987234 -5.23127 0.108642 5.25717e-007 -7.34055e-006 -0.0584668 18.8976 68.1529 -19.6615 -8.13649 25.2326 3.48774 
54.403 91.6578 6.68351 0.908906 -6.21956 1.05602 0.103502 -1.65416 -0.156924 0.205149 0.694453 -0.319214 0.20885 2.3395 -0.322808 -5.63225 25.1662 2.05564 3.18671 -6.2967 0.258408 65.4733 5.11809 1.98805 93.293 21.7792 -20.9251 -7.71787e-007 4.90639e-007 -1.54462e-006 16.5527 61.0083 -11.3699 -3.05973e-006 3.86761e-007 -3 8.0289 -4.95144 0.697674 -65.6425 0.0724893 0.747695 -100.391 26.8709 12.7449 -7.557e-006 6.08267e-007 1.99957e-006 -23.9227 55.4653 14.7321 1.3074e-005 -3.85381e-006 3.00109 -8.02893 -4.95146 -0.697672 174.465 -3.43155 2.11051 -180 7.01514e-015 178.788 177.959 4.99856 179.945 2.79486e-006 -1.13655e-006 0.0398475 -18.4861 67.643 19.2402 8.13649 25.2326 -3.48773 -176.274 -6.25688 0.575647 -1.07169e-005 -4.64205e-006 -1.2443 -0.98635 -5.21511 0.108371 5.25717e-007 -7.34055e-006 -0.0579603 18.8922 68.1466 -19.6558 -8.13649 25.2326 3.48774 
54.4065 91.6571 6.68021 0.908448 -6.22982 1.05799 0.103557 -1.65038 -0.156306 0.206276 0.702193 -0.318332 0.209981 2.34724 -0.32195 -5.6244 25.1414 2.04783 3.18309 -6.26612 0.253513 65.4439 5.07998 1.97267 93.2034 21.6802 -20.8321 -7.71787e-007 4.90639e-007 -1.54462e-006 16.5094 61.0732 -11.3632 -3.05973e-006 3.86761e-007 -3 8.0289 -4.95144 0.697674 -65.6215 0.0592585 0.752369 -100.27 26.7883 12.5194 -7.557e-006 6.08267e-007 1.99957e-006 -23.8386 55.5376 14.7196 1.3074e-005 -3.85381e-006 3.00109 -8.02893 -4.95146 -0.697672 174.465 -3.44659 2.11152 -180 7.01514e-015 178.788 177.959 4.99737 179.945 2.79486e-006 -1.13655e-006 0.039848 -18.4867 67.6439 19.2409 8.13649 25.2326 -3.48773 -176.273 -6.27623 0.574841 -1.07169e-005 -4.64205e-006 -1.24433 -0.985894 -5.20321 0.108183 5.25717e-007 -7.34055e-006 -0.0576536 18.8885 68.1422 -19.6518 -8.13649 25.2326 3.48774 
